<?xml version="1.0" encoding="utf-8" ?>
<svg xmlns="http://www.w3.org/2000/svg" xmlns:xlink="http://www.w3.org/1999/xlink" width="512" height="512">
	<defs>
		<linearGradient id="gradient_0" gradientUnits="userSpaceOnUse" x1="699.12799" y1="817.43384" x2="68.497002" y2="-49.808819">
			<stop offset="0" stop-color="#D3CED2"/>
			<stop offset="1" stop-color="white"/>
		</linearGradient>
	</defs>
	<path fill="url(#gradient_0)" transform="scale(0.666667 0.666667)" d="M-0 -0L768 0L768 768L-0 768L0 -0Z"/>
	<path fill="#E94F37" transform="scale(0.666667 0.666667)" d="M162.002 420.009L166.434 407.113C172.016 402.71 179.548 399.939 185.929 396.813C188.473 395.567 190.876 394.01 193.51 392.96C187.515 399.999 184.454 410.216 180.484 418.555C179.865 419.305 179.425 419.887 178.5 420.279C177.973 419.809 177.699 419.462 177.388 418.828C175.679 418.161 173.336 418.503 171.537 418.654C168.489 418.908 164.868 418.903 162.002 420.009Z"/>
	<path fill="#393E41" transform="scale(0.666667 0.666667)" d="M391.025 173.523C402.805 174.16 414.591 175.094 426.193 177.312C453.542 182.539 478.972 194.179 503.982 205.984L509.767 172.884L621.354 173.047L609.054 234.998L602.992 269.728C601.185 279.892 599.442 290.163 596.444 300.052C594.968 304.92 592.84 310.175 589.308 313.936C589.323 311.178 589.487 308.238 588.351 305.661C587.353 303.396 585.795 302.094 583.5 301.201C574.572 297.729 561.162 299.433 552.666 303.559C549.755 304.972 547.067 307.367 544.134 308.536L543.51 308.77L543.229 308.971C540.733 311.63 537.104 313.91 534.178 316.139C533.041 317.004 531.717 318.216 530.277 318.444L445.936 327.921L445.984 319.117C438.697 319.373 431.297 319.845 424.033 319.071C421.61 318.499 419.22 318.706 416.966 317.476L445.926 305.332C445.486 301.495 445.642 297.187 446.775 293.475L446.964 292.875L447.493 291.284C450.405 283.902 455.28 278.38 462.591 275.165C472.384 270.859 482.165 272.151 491.859 275.789L515.842 258.858L557.141 231.021L573.862 219.808C576.994 217.732 580.042 215.483 583.372 213.73L583.879 213.467L583.854 186.424L390.826 272.73L391.025 173.523Z"/>
	<path fill="#F6F7EB" transform="scale(0.666667 0.666667)" d="M543.229 308.971C539.487 308.135 535.493 308.233 531.672 308.031C524.803 307.669 517.844 307.181 510.967 307.481C510.353 305.495 510.838 302.305 510.727 300.153C510.606 297.8 510.158 295.486 509.699 293.18L543.897 292.49L543.51 308.77L543.229 308.971Z"/>
	<path fill="#F6F7EB" transform="scale(0.666667 0.666667)" d="M583.531 224.438L583.962 224.504C584.456 225.573 584.196 227.416 584.184 228.615L584.103 239.469L584.261 263.038L530.487 263.42L530.628 282.51L503.906 281.572L501.938 280.804L501.865 280.24L583.531 224.438Z"/>
	<path fill="#E94F37" transform="scale(0.666667 0.666667)" d="M390.826 272.73L162.335 371.825C162.376 369.924 163.502 367.453 164.012 365.578L168.053 350.248C170.964 339.983 173.935 329.836 177.803 319.872C188.686 291.832 204.781 266.058 225.92 244.59C268.97 200.871 329.509 173.941 391.025 173.523L390.826 272.73Z"/>
	<path fill="#393E41" transform="scale(0.666667 0.666667)" d="M543.51 308.77L544.134 308.536C547.067 307.367 549.755 304.972 552.666 303.559C561.162 299.433 574.572 297.729 583.5 301.201C585.795 302.094 587.353 303.396 588.351 305.661C589.487 308.238 589.323 311.178 589.308 313.936C585.133 320.098 582.512 325.46 576.393 330.087L615.144 328.483C619.856 328.425 626.672 327.586 630.829 330.107C636.971 333.83 639.601 342.3 640.992 348.895C642.024 353.783 642.07 359 641.958 363.98C641.659 377.397 639.26 392.984 631.653 404.366C628.543 409.02 624.312 413.665 618.562 414.75L613.924 415.228C609.893 423.336 603.918 430.46 598.431 437.616L575.586 466.978L566.346 479.202C564.199 482.038 562.049 485.043 559.401 487.431C560.248 492.789 560.208 498.213 560.072 503.623C559.764 515.76 558.435 528.348 551.069 538.464C545.943 545.503 537.965 551.308 529.232 552.736L524.977 553.087L524.788 553.51C521.468 560.673 515.139 567.559 509.983 573.522C508.676 575.033 507.228 577.184 505.592 578.305L423.356 578.295L184.311 578.686L125.925 578.911L114.01 578.949C112.949 578.951 111.08 579.22 110.193 578.789L162.002 420.009C164.868 418.903 168.489 418.908 171.537 418.654C173.336 418.503 175.679 418.161 177.388 418.828C177.699 419.462 177.973 419.809 178.5 420.279C179.425 419.887 179.865 419.305 180.484 418.555L326.927 357.298L416.966 317.476C419.22 318.706 421.61 318.499 424.033 319.071C431.297 319.845 438.697 319.373 445.984 319.117L445.936 327.921L530.277 318.444C531.717 318.216 533.041 317.004 534.178 316.139C537.104 313.91 540.733 311.63 543.229 308.971L543.51 308.77Z"/>
	<path fill="#F6F7EB" transform="scale(0.666667 0.666667)" d="M484.596 417.555C494.193 417.361 503.947 418.443 513.52 419.128C518.639 419.494 525.389 419.138 530.107 420.981C528.008 421.591 525.848 421.585 523.688 421.821L515.941 422.915L487.495 427.792L444.577 432.404C448.769 430.568 453.243 429.467 457.598 428.093C461.201 426.957 464.711 425.514 468.197 424.065C470.505 423.106 472.861 422.177 475.101 421.067C478.429 419.418 480.768 417.723 484.596 417.555Z"/>
	<path fill="#F6F7EB" transform="scale(0.666667 0.666667)" d="M561.106 413.013L604.581 413.596C599.741 417.801 595.842 423.326 591.647 428.175L571.22 451.444L558.451 467.329C558.533 464.182 558.643 460.888 558.15 457.776L558.041 457.125L557.552 454.5C555.567 446.309 550.335 439.069 543.134 434.709L542.725 434.466C544.966 432.268 546.65 429.462 548.528 426.954C552.302 421.914 556.282 417.093 561.106 413.013Z"/>
	<path fill="#E94F37" transform="scale(0.666667 0.666667)" d="M543.51 308.77L544.134 308.536C547.067 307.367 549.755 304.972 552.666 303.559C561.162 299.433 574.572 297.729 583.5 301.201C585.795 302.094 587.353 303.396 588.351 305.661C589.487 308.238 589.323 311.178 589.308 313.936C585.133 320.098 582.512 325.46 576.393 330.087C566.018 331.509 556.351 334.095 549.75 342.894C544.714 349.608 542.199 359.018 540.995 367.214L552.939 368.28C554.534 368.429 556.831 368.334 558.281 369.005L558.388 371.438L557.812 371.985L523.855 369.739L523.442 376.228L540.44 376.76L592.858 380.42C596.076 380.76 601.088 380.675 603.96 382.025L588.697 384.254L501.375 393.053L464.925 396.575C458.181 397.234 450.692 398.459 443.943 398.177C450.922 392.342 457.296 385.924 463.792 379.559L490.854 353.372L518.362 328.129L525.753 321.869C527.242 320.683 528.906 319.771 530.277 318.444C531.717 318.216 533.041 317.004 534.178 316.139C537.104 313.91 540.733 311.63 543.229 308.971L543.51 308.77Z"/>
	<path fill="#F6F7EB" transform="scale(0.666667 0.666667)" d="M326.927 357.298L416.966 317.476C419.22 318.706 421.61 318.499 424.033 319.071C431.297 319.845 438.697 319.373 445.984 319.117L445.936 327.921L530.277 318.444C528.906 319.771 527.242 320.683 525.753 321.869L518.362 328.129L490.854 353.372L463.792 379.559C457.296 385.924 450.922 392.342 443.943 398.177L394.323 445.425C398.113 446.001 402.859 445.293 406.781 445.281L433.146 445.53C430.343 449.046 428.21 452.404 426.794 456.698C423.149 467.755 424.309 481.468 425.221 492.938C425.87 501.1 426.239 509.58 430.001 517.012L136.836 517.041C142.922 512.973 147.479 508.596 152.53 503.334L163.252 503.74C164.848 503.78 166.805 504.024 168.315 503.438C170.972 502.404 173.681 499.954 176.021 498.282L185.078 492.17L264.331 435.651L303.749 406.201C305.438 404.991 309.59 401.358 311.438 401.511C311.84 402.59 311.662 403.516 311.53 404.625C309.287 407.53 304.508 410.078 301.441 412.315L282.658 426.16L173.965 503.879L174.342 503.931C180.718 504.58 187.908 503.924 194.353 503.79C195.583 503.765 199.033 504.068 200.063 503.454C201.093 502.839 202.204 501.4 203.135 500.544L209.294 495.3L241.517 468.764L259.208 454.941L339.115 391.647L326.658 392.316L326.927 357.298Z"/>
	<path fill="#393E41" transform="scale(0.666667 0.666667)" d="M372.179 466.519L402.758 466.889L403.01 504.415L365.062 504.65L333.687 504.462C336.833 500.417 341.374 496.779 345.105 493.235C354.156 484.638 363.958 475.895 372.179 466.519Z"/>
	<path fill="#E94F37" transform="scale(0.666667 0.666667)" d="M326.927 357.298L416.966 317.476C419.22 318.706 421.61 318.499 424.033 319.071C423.585 321.59 421.021 323.938 419.249 325.692C409.399 335.443 397.859 343.793 387.28 352.746L350.283 383.386C346.822 386.012 343.333 388.966 339.681 391.312L339.115 391.647L326.658 392.316L326.927 357.298Z"/>
</svg>
